# xmcd
#
# Track frame offsets:
#	150
#	14149
#	50051
#	75571
#	94234
#	111882
#	131661
#	159779
#	186712
#	207187
#	224377
#	247143
#
# Disc length: 3567 seconds
#
# Revision: 3
# Processed by: cddbd v1.5.2PL0 Copyright (c) Steve Scherf et al.
# Submitted via: audiograbber 1.83.01
#
DISCID=b30ded0c
DTITLE=Sonata Arctica - The Days Of Grays
DYEAR=2009
DGENRE=Heavy Metal
TTITLE0=Everything Fades To Gray [instrumental]
TTITLE1=Deathaura
TTITLE2=The Last Amazing Grays
TTITLE3=Flag In The Ground
TTITLE4=Breathing
TTITLE5=Zeroes
TTITLE6=The Dead Skin
TTITLE7=Juliet
TTITLE8=No Dream Can Heal A Broken Heart
TTITLE9=As If The World Wasn't Ending
TTITLE10=The Truth Is Out There
TTITLE11=Everything Fades To Gray [full version]
EXTD=
EXTT0=
EXTT1=
EXTT2=
EXTT3=
EXTT4=
EXTT5=
EXTT6=
EXTT7=
EXTT8=
EXTT9=
EXTT10=
EXTT11=
PLAYORDER=
